# xmcd
#
# Track frame offsets:
#	150
#	11930
#	24065
#	36405
#	49535
#	60480
#	70260
#	81192
#	90662
#	103832
#	116422
#	129627
#	140307
#	151245
#
# Disc length: 2263
#
# Revision: 2
# Processed by: cddbd v1.5.1PL0 Copyright (c) Steve Scherf et al.
# Submitted via: CDex 1.40Beta3
# Normalized: r1:TDELIM( - )
#
DISCID=b108d50e
DTITLE=Various Artist - Country Greatest CD2
DYEAR=1900
DGENRE=Country
TTITLE0=Tammy Wynette - Stand By Your Man (Live)
TTITLE1=Merle Haggard - Okie From Muskogee
TTITLE2=Johnny Cash - Folsom Prison Blues (Live)
TTITLE3=Freddy Fender - Wasted Days And Wasted Nights
TTITLE4=Dolly Parton - It Wasn't God Who Made Honky Tonk Angles
TTITLE5=Faron Young - Hello Walls
TTITLE6=George Jones - Tender Years
TTITLE7=Warner Mack - The Bridge Washed Out
TTITLE8=Lynn Anderson - (I Never Promised You A) Rose Garden
TTITLE9=Gene Autry - Back In The Saddle Again
TTITLE10=Mac Davis - Burnin' Thing
TTITLE11=Davis Houston and Barbara Mandrell - After Closing Time
TTITLE12=Stonewall Jackson - I Need You Real Bad
TTITLE13=Alabama - I Wanna Be With You Tonight
EXTD=ID3G:   2
EXTT0=
EXTT1=
EXTT2=
EXTT3=
EXTT4=
EXTT5=
EXTT6=
EXTT7=
EXTT8=
EXTT9=
EXTT10=
EXTT11=
EXTT12=
EXTT13=
PLAYORDER=
